# xmcd CD database file
#
# Track frame offsets:
#	150
#	1118
#	14864
#	21428
#	45731
#	57571
#	85487
#	101059
#	127922
#	155264
#	155864
#	177226
#	195483
#
# Disc length: 2877 seconds
#
# Revision: 0
# Processed by: cddbd v1.5.1PL0 Copyright (c) Steve Scherf et al.
# Submitted via: CDex 1.51
#
DISCID=ab0b3b0d
DTITLE=Sabdra Weckert - 50 Sandra Weckert Fans Can't Be Wrong
DYEAR=2002
DGENRE=Jazz
TTITLE0=Red light on
TTITLE1=Musch Silbernagl's Kastelruther Jazzspatzen
TTITLE2=Eine klitzekleine Pause
TTITLE3=Barjazz mit Bibo Mentär
TTITLE4=Ich kenne einen Umweg
TTITLE5=Auf keinenfall Kamillentee! Pfefferminz!
TTITLE6=Gerd Dudek, Gerd Dudek
TTITLE7=Welche Musik spielt das Radio
TTITLE8=Die üblichen Verdächtigen.....
TTITLE9=Die durchschnittliche Abendgage eines Berliner Jazzmusikers liegt ........
TTITLE10=Deine Probleme möchte ich haben!
TTITLE11=Exotische Früchte der Saison
TTITLE12=Bye bye Veronique
EXTD=YEAR: 2002
EXTT0=
EXTT1=
EXTT2=
EXTT3=
EXTT4=
EXTT5=
EXTT6=
EXTT7=
EXTT8=
EXTT9=
EXTT10=
EXTT11=
EXTT12=
PLAYORDER=
